<?xml version="1.0" encoding="utf-8"?>
<!-- Generator: Adobe Illustrator 23.0.1, SVG Export Plug-In . SVG Version: 6.00 Build 0)  -->
<svg version="1.1" xmlns="http://www.w3.org/2000/svg" xmlns:xlink="http://www.w3.org/1999/xlink" x="0px" y="0px"
	 viewBox="0 0 1455.2 660.3" style="enable-background:new 0 0 1455.2 660.3;" xml:space="preserve">
<style type="text/css">
	.st0{fill:#FFFFFF;}
	.st1{display:none;}
	.st2{fill:#FFF9FA;}
	.st3{display:inline;fill:#FFFFFF;}
	.st4{display:inline;}
	.st5{font-family:'GalanoGrotesqueDEMO-Bold';}
	.st6{font-size:133.9025px;}
	.st7{opacity:0.2;fill:#795321;}
	.st8{fill:#F2E9E8;}
	.st9{clip-path:url(#XMLID_2_);}
	.st10{opacity:0.8;fill:#F2E9E8;}
	.st11{opacity:0.6;}
	.st12{opacity:0.8;fill:#FFFFFF;}
	.st13{opacity:0.5;fill:#FFFFFF;}
	.st14{clip-path:url(#XMLID_5_);fill:#7D7D7D;}
	.st15{fill:#EFE9E0;}
	.st16{clip-path:url(#XMLID_6_);fill:#FFFFFF;}
</style>
<g id="Layer_2">
	<rect x="-14.7" y="-7.2" width="1487.6" height="709.4"/>
</g>
<g id="Logos">
	<g id="Logo_U-mug">
		<path class="st0" d="M553.2,607.5c2-5.9,3.2-11.8,3.7-17.8c5.3,13.4,14.5,20.1,27.7,20.1c7.2,0,12.9-2.2,17.4-6.6
			c4.4-4.4,6.6-10.4,6.6-18.1c0-5.4-1.4-9.7-4.2-12.9c-2.5-2.9-6.7-5.7-12.7-8.2l-13.6-5.7c-14.9-6.3-22.3-15.7-22.3-28.2
			c0-9.5,3.3-17.3,9.8-23.3c6.5-6,15.1-9.1,25.6-9.1c8.8,0,17.3,2.1,25.5,6.2c-1.7,3.5-3.2,7.8-4.7,12.9
			c-5.9-8.6-13.6-12.9-23.1-12.9c-6.1,0-11,1.9-14.7,5.6c-3.6,3.7-5.4,8.8-5.4,15.2c0,8.7,5.6,15.5,16.9,20.5l13.6,5.9
			c7.8,3.4,13.5,7.3,16.9,11.7c3.5,4.5,5.2,10.3,5.2,17.4c0,10.8-3.6,19.6-10.9,26.2c-7.3,6.7-16.9,10-29,10
			C570.2,616.4,560.8,613.4,553.2,607.5z M640.9,614.2c0.6-25.3,0.8-46.2,0.8-62.9c0-19.9-0.3-40.9-0.8-62.9c3.4,0.4,5.7,0.7,7,0.7
			c1.7,0,4-0.2,6.9-0.7c-0.4,12.5-0.7,25-0.7,37.4c0,4.6,0.1,12.2,0.3,23c6.8-10.2,15.5-15.3,26-15.3c17.9,0,26.8,9.7,26.8,29.2
			c0,2.1-0.1,6.1-0.3,11.8c-0.2,5.8-0.3,10.4-0.3,14c0,2.1,0.2,10.7,0.7,25.7c-2.5-0.6-4.8-0.8-6.9-0.8c-2,0-4.3,0.3-6.9,0.8
			c0.6-20.5,0.8-35.3,0.8-44.6c0-9.6-1.5-16.6-4.4-21c-2.9-4.4-7.8-6.6-14.8-6.6c-8.2,0-14.1,3.7-17.9,11.1
			c-2.2,4.4-3.4,14.3-3.4,29.7v11.9c0,4,0.2,10.6,0.5,19.6c-2.6-0.6-4.9-0.8-7-0.8C645.6,613.3,643.4,613.6,640.9,614.2z
			 M765.6,615.7c-11.6,0-21.2-3.8-28.6-11.4c-7.4-7.6-11.2-17.5-11.2-29.7c0-12.1,3.8-21.9,11.3-29.6c7.5-7.7,17-11.5,28.4-11.5
			c11.7,0,21.3,3.8,28.7,11.4c7.4,7.6,11.1,17.5,11.1,29.7c0,12.3-3.7,22.2-11.2,29.8C786.7,611.9,777.2,615.7,765.6,615.7z
			 M765.6,610.7c17,0,25.5-11.7,25.5-35c0-24.7-8.6-37.1-25.7-37.1c-16.9,0-25.3,12-25.3,35.9C740.2,598.6,748.7,610.7,765.6,610.7z
			 M824.3,660.1c0.3-9.2,0.5-32.4,0.5-69.7c0-25-0.3-43.4-0.8-55.4c1.7,0.4,3.7,0.7,6.1,0.7c2.6,0,5-0.2,7.3-0.7
			c-0.4,4.5-0.7,9.5-0.7,15.1c6.6-11.3,16-16.9,28.2-16.9c10.8,0,19.2,3.6,25.1,10.6c5.9,7.1,8.8,17.4,8.8,30.9
			c0,12.7-3.3,22.8-9.8,30.3c-6.5,7.4-15.1,11.2-25.6,11.2c-11.3,0-20-4.8-26-14.3v20.2c0,0.7,0.3,13.3,0.8,38c-2.6-0.7-4.9-1-7-1
			C829.2,659.1,826.9,659.5,824.3,660.1z M836.4,574.7c0,23.3,8,35,24,35c7.7,0,13.7-3,17.9-9.1c4.2-6.1,6.3-14.9,6.3-26.3
			c0-10.9-2.1-19.3-6.4-25.2c-4.2-5.9-10.2-8.8-17.8-8.8c-7.4,0-13.2,3-17.5,9C838.6,555.1,836.4,563.7,836.4,574.7z"/>
		<path class="st0" d="M1452.1,0v584H948.8l0.1-15.9h487.3V15.9H15.9v552.1h483.3V584H0V0H1452.1z"/>
		<g>
			<g>
				<path class="st1" d="M1272.6,297.3h-17.9v-57h26c6.6,0,12,5.4,12,12v25C1292.6,288.4,1283.7,297.3,1272.6,297.3z"/>
				<path class="st2" d="M1272.6,302.8h-23.5v-68h31.5c9.6,0,17.5,7.8,17.5,17.5v25C1298.1,291.4,1286.7,302.8,1272.6,302.8z
					 M1260.2,291.8h12.4c8,0,14.5-6.5,14.5-14.5v-25c0-3.6-2.9-6.4-6.4-6.4h-20.4V291.8z"/>
			</g>
			<path class="st0" d="M1230.8,216.8c0,0,0.3-0.2,0.7-0.6c0.1-0.1,0.2-0.2,0.4-0.4c0.1-0.1,0.3-0.3,0.4-0.4c0.3-0.3,0.7-0.7,1-1.1
				c0.4-0.4,0.8-0.9,1.2-1.5c0.4-0.5,0.8-1.2,1.2-1.8c0.4-0.7,0.8-1.4,1.2-2.2c0.1-0.2,0.2-0.4,0.3-0.6c0-0.1,0.1-0.2,0.1-0.3
				c0.1-0.1,0.1-0.2,0.1-0.3c0.1-0.2,0.2-0.4,0.3-0.6c0.1-0.2,0.2-0.4,0.3-0.7c0-0.1,0.1-0.2,0.1-0.3c0-0.1,0.1-0.2,0.1-0.3
				c0-0.1,0.1-0.2,0.1-0.3c0-0.1,0.1-0.2,0.1-0.3c0.1-0.2,0.1-0.5,0.2-0.7c0-0.1,0.1-0.2,0.1-0.4c0-0.1,0.1-0.2,0.1-0.4
				c0-0.1,0.1-0.2,0.1-0.4c0-0.1,0.1-0.2,0.1-0.4c0.1-0.2,0.1-0.5,0.2-0.8c0-0.3,0.1-0.5,0.1-0.8c0-0.1,0.1-0.3,0.1-0.4
				c0-0.1,0-0.3,0.1-0.4c0-0.3,0.1-0.5,0.1-0.8c0-0.3,0.1-0.5,0.1-0.8c0-0.3,0-0.5,0.1-0.8c0-0.1,0-0.3,0-0.4c0-0.1,0-0.3,0-0.4
				c0-0.3,0-0.6,0-0.8c0-0.3,0-0.6,0-0.9c0-0.1,0-0.3,0-0.4l0-0.2l0-0.1c0,0,0,0,0,0l0,0l0-0.1c0-0.3,0-0.6-0.1-0.9l0-0.2
				c0-0.1,0-0.1,0-0.2c0-0.1,0-0.3,0-0.4c0-0.1,0-0.3-0.1-0.4l0-0.2c0-0.1,0-0.1,0-0.2c-0.1-0.6-0.2-1.1-0.3-1.7
				c-0.3-1.1-0.7-2.1-1.2-3.1c-0.3-0.5-0.5-1-0.8-1.4c-0.1-0.1-0.2-0.2-0.2-0.4c-0.1-0.1-0.2-0.2-0.2-0.3l-0.3-0.3l-0.3-0.3
				c-0.7-0.9-1.6-1.8-2.5-2.7c-0.9-0.9-1.9-1.9-2.8-3c-0.5-0.6-0.9-1.1-1.4-1.8c-0.4-0.6-0.8-1.3-1.2-2c-0.4-0.7-0.7-1.4-0.9-2.2
				c-0.2-0.7-0.4-1.5-0.5-2.3c-0.1-0.8-0.2-1.5-0.2-2.2c0-0.2,0-0.4,0-0.5c0-0.2,0-0.4,0-0.5l0-0.1l0-0.1l0-0.1l0-0.2
				c0-0.1,0-0.3,0-0.5l0-0.3c0-0.1,0-0.2,0-0.3c0-0.2,0-0.4,0.1-0.5c0-0.2,0.1-0.4,0.1-0.5c0-0.2,0.1-0.3,0.1-0.5
				c0.1-0.3,0.1-0.7,0.2-1c0-0.2,0.1-0.3,0.1-0.5l0.1-0.3l0.1-0.2c0.4-1.3,1-2.5,1.7-3.6c0.7-1.1,1.4-2.1,2.2-2.9
				c0.8-0.9,1.6-1.6,2.3-2.3c1.5-1.4,2.9-2.5,4.1-3.5c0.6-0.5,1.1-1,1.6-1.5c0.5-0.5,0.8-1,1.2-1.4c0.1-0.1,0.2-0.2,0.2-0.3
				c0.1-0.1,0.1-0.2,0.2-0.3c0.1-0.1,0.1-0.2,0.2-0.3c0.1-0.1,0.1-0.2,0.1-0.3c0.2-0.4,0.3-0.8,0.4-1.1c0-0.1,0-0.1,0.1-0.2
				c0-0.1,0-0.1,0-0.2c0-0.1,0-0.1,0-0.2c0,0,0-0.1,0-0.1c0-0.2,0-0.2,0-0.2s0,0.1,0,0.2c0,0,0,0.1,0,0.1c0,0.1,0,0.1,0,0.2
				c0,0.1,0,0.1,0,0.2c0,0.1,0,0.1,0,0.2c0,0.2,0,0.3,0,0.5c0,0.1,0,0.2,0,0.3c0,0.1,0,0.2,0,0.3c-0.1,0.5-0.2,1-0.4,1.6
				c-0.4,1.2-1.2,2.5-2.2,3.8c-1,1.3-2.2,2.7-3.4,4.2c-0.6,0.8-1.2,1.5-1.8,2.4c-0.6,0.8-1.1,1.7-1.5,2.6c-0.2,0.5-0.4,0.9-0.6,1.4
				c-0.2,0.5-0.3,1-0.4,1.5l0,0.2l0,0.2c0,0.1-0.1,0.3-0.1,0.4c0,0.3-0.1,0.5-0.1,0.8c0,0.1,0,0.3,0,0.4c0,0.1,0,0.3,0,0.4
				c0,0.1,0,0.3,0,0.4c0,0.1,0,0.1,0,0.2l0,0.2c0,0.1,0,0.2,0,0.4l0,0.2l0,0.1l0,0.1c0,0,0-0.1,0,0l0,0c0,0.1,0,0.3,0,0.4
				c0,0.1,0,0.3,0,0.4c0.1,0.5,0.1,1.1,0.2,1.6c0.1,0.5,0.3,1,0.4,1.5c0.2,0.5,0.4,1,0.7,1.4c0.3,0.5,0.5,0.9,0.9,1.4
				c0.3,0.4,0.7,0.9,1.1,1.3c0.8,0.9,1.7,1.8,2.6,2.8c0.9,1,1.9,2,2.8,3.2l0.3,0.4l0.3,0.5c0.1,0.2,0.2,0.3,0.3,0.5
				c0.1,0.2,0.2,0.3,0.3,0.5c0.4,0.6,0.8,1.3,1.1,2c0.3,0.7,0.6,1.4,0.8,2.1c0.2,0.7,0.4,1.4,0.5,2.2c0.1,0.7,0.2,1.4,0.3,2.2
				c0,0.2,0,0.4,0,0.5c0,0.2,0,0.4,0,0.5c0,0.2,0,0.3,0,0.5c0,0.1,0,0.2,0,0.3l0,0.3c0,0.4,0,0.7,0,1l0,0.2l0,0.1l0,0.3
				c0,0.2,0,0.3,0,0.5c0,0.7-0.1,1.3-0.2,2c0,0.2,0,0.3-0.1,0.5c0,0.2-0.1,0.3-0.1,0.5c-0.1,0.3-0.1,0.6-0.2,0.9
				c-0.1,0.3-0.1,0.6-0.2,0.9c0,0.1,0,0.2-0.1,0.2l-0.1,0.2c0,0.2-0.1,0.3-0.1,0.5c0,0.1-0.1,0.3-0.1,0.4c0,0.1-0.1,0.3-0.1,0.4
				c-0.1,0.3-0.2,0.6-0.3,0.9c-0.1,0.3-0.2,0.6-0.3,0.8c-0.1,0.1-0.1,0.3-0.2,0.4c-0.1,0.1-0.1,0.3-0.2,0.4c-0.4,1.1-1,2.1-1.5,3
				c-0.1,0.2-0.3,0.5-0.4,0.7c-0.1,0.2-0.3,0.4-0.4,0.6c-0.1,0.1-0.1,0.2-0.2,0.3c-0.1,0.1-0.1,0.2-0.2,0.3
				c-0.1,0.1-0.1,0.2-0.2,0.3c-0.1,0.1-0.1,0.2-0.2,0.3c-0.1,0.2-0.3,0.4-0.4,0.6c-0.1,0.1-0.1,0.2-0.2,0.3
				c-0.1,0.1-0.1,0.2-0.2,0.3c-0.3,0.3-0.6,0.7-0.9,1c-0.3,0.3-0.6,0.6-0.9,0.8c-0.1,0.1-0.3,0.3-0.4,0.4c-0.1,0.1-0.3,0.2-0.4,0.4
				c-0.1,0.1-0.3,0.2-0.4,0.3c-0.1,0.1-0.3,0.2-0.4,0.3c-0.3,0.2-0.5,0.4-0.8,0.6c-0.2,0.2-0.5,0.3-0.7,0.5
				c-0.1,0.1-0.2,0.1-0.3,0.2c-0.1,0.1-0.2,0.1-0.3,0.2c-0.4,0.2-0.7,0.4-1,0.6c-0.3,0.1-0.5,0.2-0.6,0.3
				C1230.9,216.8,1230.8,216.8,1230.8,216.8z"/>
			<path class="st0" d="M1218.3,220.2c0,0,0,0,0.1-0.1c0.1-0.1,0.2-0.2,0.4-0.3c0.2-0.1,0.3-0.3,0.6-0.5c0.1-0.1,0.2-0.2,0.3-0.3
				c0.1-0.1,0.3-0.2,0.4-0.4c0.5-0.6,1.2-1.2,1.8-2.1c0.7-0.8,1.4-1.8,2.1-2.9c0.2-0.3,0.3-0.6,0.5-0.9c0.1-0.1,0.2-0.3,0.3-0.4
				c0.1-0.2,0.2-0.3,0.2-0.5c0.1-0.2,0.2-0.3,0.2-0.5c0.1-0.2,0.2-0.3,0.2-0.5c0.2-0.3,0.3-0.7,0.5-1c0.6-1.4,1.1-2.8,1.5-4.4
				c0.4-1.6,0.6-3.2,0.7-4.9c0-0.2,0-0.4,0-0.6l0-0.3l0-0.2c0-0.1,0-0.1,0-0.2c0-0.4,0-0.8,0-1.3c0-0.2,0-0.4,0-0.7
				c0-0.2,0-0.4,0-0.6l0-0.6l-0.1-0.6c-0.1-0.8-0.2-1.6-0.4-2.4c-0.1-0.4-0.2-0.8-0.3-1.2c-0.1-0.4-0.3-0.8-0.4-1.1
				c-0.3-0.7-0.7-1.5-1.1-2.1c-0.4-0.7-0.9-1.3-1.3-2c-1-1.3-2-2.4-3-3.6c-0.5-0.6-1-1.2-1.5-1.8c-0.5-0.6-0.9-1.2-1.3-1.8
				c-0.4-0.6-0.7-1.2-1-1.8c-0.3-0.6-0.5-1.2-0.6-1.7c-0.2-0.6-0.3-1.1-0.3-1.6c-0.1-0.5-0.1-0.9-0.1-1.4c0-0.1,0-0.2,0-0.3
				c0-0.1,0-0.2,0-0.3c0-0.2,0-0.3,0-0.5c0-0.3,0-0.6,0-0.8c0-0.2,0-0.4,0.1-0.5c0-0.1,0-0.2,0-0.2s0,0.2,0.1,0.6
				c0.1,0.4,0.2,1,0.4,1.8c0,0.1,0.1,0.2,0.1,0.3c0,0.1,0.1,0.2,0.1,0.3c0,0.1,0,0.1,0,0.2c0,0.1,0,0.1,0.1,0.2
				c0,0.1,0.1,0.2,0.1,0.3c0.2,0.4,0.3,0.9,0.6,1.4c0.5,0.9,1.1,1.9,1.9,2.9c0.2,0.2,0.4,0.5,0.6,0.7c0.2,0.2,0.5,0.5,0.7,0.7
				c0.5,0.5,1,1,1.6,1.5c1.1,1,2.3,2.1,3.5,3.5c0.6,0.7,1.1,1.4,1.7,2.2c0.3,0.4,0.5,0.8,0.7,1.2c0.2,0.4,0.4,0.8,0.6,1.3
				c0.2,0.4,0.4,0.9,0.5,1.4c0.2,0.5,0.3,0.9,0.4,1.4c0.3,0.9,0.4,1.9,0.5,2.9l0.1,0.7l0,0.7c0,0.2,0,0.5,0,0.7c0,0.2,0,0.5,0,0.7
				v0.1l0,0.1l0,0.2l0,0.4c0,0.2,0,0.5,0,0.7c0,0.1,0,0.1,0,0.2l0,0.2l0,0.4c0,0.2,0,0.5-0.1,0.7c-0.2,1.9-0.6,3.7-1.1,5.4
				c-0.5,1.7-1.2,3.3-2,4.7c-0.2,0.4-0.4,0.7-0.6,1c-0.1,0.2-0.2,0.3-0.3,0.5c-0.1,0.2-0.2,0.3-0.3,0.5c-0.1,0.2-0.2,0.3-0.3,0.5
				c-0.1,0.1-0.2,0.3-0.3,0.4c-0.2,0.3-0.4,0.6-0.7,0.8c-0.1,0.1-0.1,0.1-0.2,0.2c-0.1,0.1-0.1,0.1-0.2,0.2
				c-0.1,0.1-0.2,0.3-0.3,0.4c-0.2,0.2-0.4,0.5-0.7,0.7c-0.2,0.2-0.4,0.4-0.7,0.6c-0.2,0.2-0.4,0.4-0.6,0.6
				c-0.8,0.7-1.6,1.3-2.3,1.7c-0.3,0.2-0.6,0.4-0.9,0.5c-0.3,0.2-0.5,0.3-0.7,0.4c-0.2,0.1-0.3,0.2-0.4,0.2
				C1218.4,220.2,1218.3,220.2,1218.3,220.2z"/>
		</g>
		<g>
			<path class="st0" d="M130.8,270.5c9.1,0.7,19,7.7,19,22.4c0,16.1-11.1,27.3-32.6,27.3H65.9v-97.3h51.2
				c18.1,0,29.9,10.6,29.9,26.6c0,13.4-9.6,19.8-16.2,20.5V270.5z M90.2,263.1h21.2c7.2,0,11.9-4.4,11.9-10.9c0-6.1-4.9-10-11.1-10
				H90.2V263.1z M113,300.9c7.8,0,12.1-4.2,12.1-10.9c0-6.4-4.7-10.5-11.7-10.5H90.2v21.4H113z"/>
			<path class="st0" d="M269,320.2h-73v-97.3h24.3v76.4H269V320.2z"/>
			<path class="st0" d="M388.1,320.2l-6.9-17.7h-41.6l-6.9,17.7h-26.1l41.3-97.3h24.9l41.3,97.3H388.1z M360.3,249.9l-12.5,32H373
				L360.3,249.9z"/>
			<path class="st0" d="M550.2,283.7c-4.6,24.4-24.5,38.6-49.9,38.6c-29.4,0-52.5-22.2-52.5-50.8c0-28.5,23.2-50.8,52.5-50.8
				c24.3,0,45,14.2,49.7,37.3l-23.9,5.5c-3.1-14.1-13.1-20.9-25.8-20.9c-15.6,0-28.2,12.3-28.2,28.9c0,16.6,12.5,29.1,28.2,29.1
				c12.5,0,22.6-7,26-21.5L550.2,283.7z"/>
			<path class="st0" d="M658.2,320.2l-32.3-36.6h-5.2v36.6h-24.3v-97.3h24.3v38.6h3.5l33.6-38.6h29.2l-42,48.8l45,48.5H658.2z"/>
			<path class="st0" d="M870.3,320.2h-73v-97.3h24.3v76.4h48.7V320.2z"/>
			<path class="st0" d="M1015.3,271.7c0,28.3-23.2,50.7-52.7,50.7c-29.5,0-52.7-22.4-52.7-50.7c0-28.5,23.2-51,52.7-51
				C992.2,220.7,1015.3,243.2,1015.3,271.7z M991,271.7c0-16.7-12.2-29.1-28.3-29.1c-16.1,0-28.3,12.3-28.3,29.1
				c0,16.6,12.2,28.8,28.3,28.8C978.7,300.5,991,288.3,991,271.7z"/>
			<path class="st0" d="M1108.1,243.8v76.4h-24.2v-76.4h-32v-20.9h88.2v20.9H1108.1z"/>
			<path class="st0" d="M1272.4,276.3c0,27.9-17.6,46-43.8,46c-26.8,0-44.8-18.2-44.8-46v-53.5h24.3v53.5c0,14.8,8.1,24,20.5,24
				c11.7,0,19.5-9.2,19.5-24v-53.5h24.3V276.3z"/>
			<path class="st0" d="M1401.4,248.9l-23.9,4.8c-1.8-9.2-9.4-13.7-17.3-13.7c-8.1,0-13.3,4.4-13.3,9.9c0,3.9,1.8,6.8,8,8.1
				l20.5,4.5c17.1,3.8,27.1,12.9,27.1,28.3c0,20.8-18.7,31.5-40.7,31.5c-22.3,0-40.6-10.5-43.2-29.5l25.1-4.8
				c2.5,10,9.6,14.4,19.5,14.4c9.1,0,14.6-4.1,14.6-10c0-4.4-2.1-7.1-9.1-8.6l-20.7-4.4c-14.2-3.2-26.6-10.5-26.6-28.2
				c0-18.9,15.9-30.7,39.1-30.7C1382,220.7,1397.7,231.2,1401.4,248.9z"/>
		</g>
	</g>
	<g id="Logo_mug-wine-travel" class="st1">
		<path class="st0" d="M556.2,608.9c2-5.9,3.2-11.8,3.7-17.8c5.3,13.4,14.5,20.1,27.7,20.1c7.2,0,12.9-2.2,17.4-6.6
			c4.4-4.4,6.6-10.4,6.6-18.1c0-5.4-1.4-9.7-4.2-12.9c-2.5-2.9-6.7-5.7-12.7-8.2l-13.6-5.7c-14.9-6.3-22.3-15.7-22.3-28.2
			c0-9.5,3.3-17.3,9.8-23.3c6.5-6,15.1-9.1,25.6-9.1c8.8,0,17.3,2.1,25.5,6.2c-1.7,3.5-3.2,7.8-4.7,12.9
			c-5.9-8.6-13.6-12.9-23.1-12.9c-6.1,0-11,1.9-14.7,5.6c-3.6,3.7-5.4,8.8-5.4,15.2c0,8.7,5.6,15.5,16.9,20.5l13.6,5.9
			c7.8,3.4,13.5,7.3,16.9,11.7c3.5,4.5,5.2,10.3,5.2,17.4c0,10.8-3.6,19.6-10.9,26.2c-7.3,6.7-16.9,10-29,10
			C573.2,617.8,563.8,614.8,556.2,608.9z M643.9,615.6c0.6-25.3,0.8-46.2,0.8-62.9c0-19.9-0.3-40.9-0.8-62.9c3.4,0.4,5.7,0.7,7,0.7
			c1.7,0,4-0.2,6.9-0.7c-0.4,12.5-0.7,25-0.7,37.4c0,4.6,0.1,12.2,0.3,23c6.8-10.2,15.5-15.3,26-15.3c17.9,0,26.8,9.7,26.8,29.2
			c0,2.1-0.1,6.1-0.3,11.8c-0.2,5.8-0.3,10.4-0.3,14c0,2.1,0.2,10.7,0.7,25.7c-2.5-0.6-4.8-0.8-6.9-0.8c-2,0-4.3,0.3-6.9,0.8
			c0.6-20.5,0.8-35.3,0.8-44.6c0-9.6-1.5-16.6-4.4-21c-2.9-4.4-7.8-6.6-14.8-6.6c-8.2,0-14.1,3.7-17.9,11.1
			c-2.2,4.4-3.4,14.3-3.4,29.7V596c0,4,0.2,10.6,0.5,19.6c-2.6-0.6-4.9-0.8-7-0.8C648.6,614.8,646.4,615,643.9,615.6z M768.7,617.1
			c-11.6,0-21.2-3.8-28.6-11.4c-7.4-7.6-11.2-17.5-11.2-29.7c0-12.1,3.8-21.9,11.3-29.6c7.5-7.7,17-11.5,28.4-11.5
			c11.7,0,21.3,3.8,28.7,11.4c7.4,7.6,11.1,17.5,11.1,29.7c0,12.3-3.7,22.2-11.2,29.8C789.7,613.3,780.2,617.1,768.7,617.1z
			 M768.7,612.1c17,0,25.5-11.7,25.5-35c0-24.7-8.6-37.1-25.7-37.1c-16.9,0-25.3,12-25.3,35.9C743.2,600,751.7,612.1,768.7,612.1z
			 M827.4,661.5c0.3-9.2,0.5-32.4,0.5-69.7c0-25-0.3-43.4-0.8-55.4c1.7,0.4,3.7,0.7,6.1,0.7c2.6,0,5-0.2,7.3-0.7
			c-0.4,4.5-0.7,9.5-0.7,15.1c6.6-11.3,16-16.9,28.2-16.9c10.8,0,19.2,3.6,25.1,10.6c5.9,7.1,8.8,17.4,8.8,30.9
			c0,12.7-3.3,22.8-9.8,30.3c-6.5,7.4-15.1,11.2-25.6,11.2c-11.3,0-20-4.8-26-14.3v20.2c0,0.7,0.3,13.3,0.8,38c-2.6-0.7-4.9-1-7-1
			C832.2,660.5,830,660.9,827.4,661.5z M839.5,576.1c0,23.3,8,35,24,35c7.7,0,13.7-3,17.9-9.1c4.2-6.1,6.3-14.9,6.3-26.3
			c0-10.9-2.1-19.3-6.4-25.2c-4.2-5.9-10.2-8.8-17.8-8.8c-7.4,0-13.2,3-17.5,9C841.6,556.6,839.5,565.1,839.5,576.1z"/>
		<path class="st3" d="M1455.2,1.4v584h-244.5v-15.9h228.6V17.4H19v552.1h230.1l0.4,15.9H3V1.4H1455.2z"/>
		<g>
			<g class="st4">
				<path class="st1" d="M1275.7,298.7h-17.9v-57h26c6.6,0,12,5.4,12,12v25C1295.7,289.8,1286.7,298.7,1275.7,298.7z"/>
				<path class="st2" d="M1275.7,304.2h-23.5v-68h31.5c9.6,0,17.5,7.8,17.5,17.5v25C1301.2,292.8,1289.7,304.2,1275.7,304.2z
					 M1263.3,293.2h12.4c8,0,14.5-6.5,14.5-14.5v-25c0-3.6-2.9-6.4-6.4-6.4h-20.4V293.2z"/>
			</g>
			<path class="st3" d="M1233.9,218.2c0,0,0.3-0.2,0.7-0.6c0.1-0.1,0.2-0.2,0.4-0.4c0.1-0.1,0.3-0.3,0.4-0.4c0.3-0.3,0.7-0.7,1-1.1
				c0.4-0.4,0.8-0.9,1.2-1.5c0.4-0.5,0.8-1.2,1.2-1.8c0.4-0.7,0.8-1.4,1.2-2.2c0.1-0.2,0.2-0.4,0.3-0.6c0-0.1,0.1-0.2,0.1-0.3
				c0.1-0.1,0.1-0.2,0.1-0.3c0.1-0.2,0.2-0.4,0.3-0.6c0.1-0.2,0.2-0.4,0.3-0.7c0-0.1,0.1-0.2,0.1-0.3c0-0.1,0.1-0.2,0.1-0.3
				c0-0.1,0.1-0.2,0.1-0.3c0-0.1,0.1-0.2,0.1-0.3c0.1-0.2,0.1-0.5,0.2-0.7c0-0.1,0.1-0.2,0.1-0.4c0-0.1,0.1-0.2,0.1-0.4
				c0-0.1,0.1-0.2,0.1-0.4c0-0.1,0.1-0.2,0.1-0.4c0.1-0.2,0.1-0.5,0.2-0.8c0-0.3,0.1-0.5,0.1-0.8c0-0.1,0.1-0.3,0.1-0.4
				c0-0.1,0-0.3,0.1-0.4c0-0.3,0.1-0.5,0.1-0.8c0-0.3,0.1-0.5,0.1-0.8c0-0.3,0-0.5,0.1-0.8c0-0.1,0-0.3,0-0.4c0-0.1,0-0.3,0-0.4
				c0-0.3,0-0.6,0-0.8c0-0.3,0-0.6,0-0.9c0-0.1,0-0.3,0-0.4l0-0.2l0-0.1c0,0,0,0,0,0l0,0l0-0.1c0-0.3,0-0.6-0.1-0.9l0-0.2
				c0-0.1,0-0.1,0-0.2c0-0.1,0-0.3,0-0.4c0-0.1,0-0.3-0.1-0.4l0-0.2c0-0.1,0-0.1,0-0.2c-0.1-0.6-0.2-1.1-0.3-1.7
				c-0.3-1.1-0.7-2.1-1.2-3.1c-0.3-0.5-0.5-1-0.8-1.4c-0.1-0.1-0.2-0.2-0.2-0.4c-0.1-0.1-0.2-0.2-0.2-0.3l-0.3-0.3l-0.3-0.3
				c-0.7-0.9-1.6-1.8-2.5-2.7c-0.9-0.9-1.9-1.9-2.8-3c-0.5-0.6-0.9-1.1-1.4-1.8c-0.4-0.6-0.8-1.3-1.2-2c-0.4-0.7-0.7-1.4-0.9-2.2
				c-0.2-0.7-0.4-1.5-0.5-2.3c-0.1-0.8-0.2-1.5-0.2-2.2c0-0.2,0-0.4,0-0.5c0-0.2,0-0.4,0-0.5l0-0.1l0-0.1l0-0.1l0-0.2
				c0-0.1,0-0.3,0-0.5l0-0.3c0-0.1,0-0.2,0-0.3c0-0.2,0-0.4,0.1-0.5c0-0.2,0.1-0.4,0.1-0.5c0-0.2,0.1-0.3,0.1-0.5
				c0.1-0.3,0.1-0.7,0.2-1c0-0.2,0.1-0.3,0.1-0.5l0.1-0.3l0.1-0.2c0.4-1.3,1-2.5,1.7-3.6c0.7-1.1,1.4-2.1,2.2-2.9
				c0.8-0.9,1.6-1.6,2.3-2.3c1.5-1.4,2.9-2.5,4.1-3.5c0.6-0.5,1.1-1,1.6-1.5c0.5-0.5,0.8-1,1.2-1.4c0.1-0.1,0.2-0.2,0.2-0.3
				c0.1-0.1,0.1-0.2,0.2-0.3c0.1-0.1,0.1-0.2,0.2-0.3c0.1-0.1,0.1-0.2,0.1-0.3c0.2-0.4,0.3-0.8,0.4-1.1c0-0.1,0-0.1,0.1-0.2
				c0-0.1,0-0.1,0-0.2c0-0.1,0-0.1,0-0.2c0,0,0-0.1,0-0.1c0-0.2,0-0.2,0-0.2s0,0.1,0,0.2c0,0,0,0.1,0,0.1c0,0.1,0,0.1,0,0.2
				c0,0.1,0,0.1,0,0.2c0,0.1,0,0.1,0,0.2c0,0.2,0,0.3,0,0.5c0,0.1,0,0.2,0,0.3c0,0.1,0,0.2,0,0.3c-0.1,0.5-0.2,1-0.4,1.6
				c-0.4,1.2-1.2,2.5-2.2,3.8c-1,1.3-2.2,2.7-3.4,4.2c-0.6,0.8-1.2,1.5-1.8,2.4c-0.6,0.8-1.1,1.7-1.5,2.6c-0.2,0.5-0.4,0.9-0.6,1.4
				c-0.2,0.5-0.3,1-0.4,1.5l0,0.2l0,0.2c0,0.1-0.1,0.3-0.1,0.4c0,0.3-0.1,0.5-0.1,0.8c0,0.1,0,0.3,0,0.4c0,0.1,0,0.3,0,0.4
				c0,0.1,0,0.3,0,0.4c0,0.1,0,0.1,0,0.2l0,0.2c0,0.1,0,0.2,0,0.4l0,0.2l0,0.1l0,0.1c0,0,0-0.1,0,0l0,0c0,0.1,0,0.3,0,0.4
				c0,0.1,0,0.3,0,0.4c0.1,0.5,0.1,1.1,0.2,1.6c0.1,0.5,0.3,1,0.4,1.5c0.2,0.5,0.4,1,0.7,1.4c0.3,0.5,0.5,0.9,0.9,1.4
				c0.3,0.4,0.7,0.9,1.1,1.3c0.8,0.9,1.7,1.8,2.6,2.8c0.9,1,1.9,2,2.8,3.2l0.3,0.4l0.3,0.5c0.1,0.2,0.2,0.3,0.3,0.5
				c0.1,0.2,0.2,0.3,0.3,0.5c0.4,0.6,0.8,1.3,1.1,2c0.3,0.7,0.6,1.4,0.8,2.1c0.2,0.7,0.4,1.4,0.5,2.2c0.1,0.7,0.2,1.4,0.3,2.2
				c0,0.2,0,0.4,0,0.5c0,0.2,0,0.4,0,0.5c0,0.2,0,0.3,0,0.5c0,0.1,0,0.2,0,0.3l0,0.3c0,0.4,0,0.7,0,1l0,0.2l0,0.1l0,0.3
				c0,0.2,0,0.3,0,0.5c0,0.7-0.1,1.3-0.2,2c0,0.2,0,0.3-0.1,0.5c0,0.2-0.1,0.3-0.1,0.5c-0.1,0.3-0.1,0.6-0.2,0.9
				c-0.1,0.3-0.1,0.6-0.2,0.9c0,0.1,0,0.2-0.1,0.2l-0.1,0.2c0,0.2-0.1,0.3-0.1,0.5c0,0.1-0.1,0.3-0.1,0.4c0,0.1-0.1,0.3-0.1,0.4
				c-0.1,0.3-0.2,0.6-0.3,0.9c-0.1,0.3-0.2,0.6-0.3,0.8c-0.1,0.1-0.1,0.3-0.2,0.4c-0.1,0.1-0.1,0.3-0.2,0.4c-0.4,1.1-1,2.1-1.5,3
				c-0.1,0.2-0.3,0.5-0.4,0.7c-0.1,0.2-0.3,0.4-0.4,0.6c-0.1,0.1-0.1,0.2-0.2,0.3c-0.1,0.1-0.1,0.2-0.2,0.3
				c-0.1,0.1-0.1,0.2-0.2,0.3c-0.1,0.1-0.1,0.2-0.2,0.3c-0.1,0.2-0.3,0.4-0.4,0.6c-0.1,0.1-0.1,0.2-0.2,0.3
				c-0.1,0.1-0.1,0.2-0.2,0.3c-0.3,0.3-0.6,0.7-0.9,1c-0.3,0.3-0.6,0.6-0.9,0.8c-0.1,0.1-0.3,0.3-0.4,0.4c-0.1,0.1-0.3,0.2-0.4,0.4
				c-0.1,0.1-0.3,0.2-0.4,0.3c-0.1,0.1-0.3,0.2-0.4,0.3c-0.3,0.2-0.5,0.4-0.8,0.6c-0.2,0.2-0.5,0.3-0.7,0.5
				c-0.1,0.1-0.2,0.1-0.3,0.2c-0.1,0.1-0.2,0.1-0.3,0.2c-0.4,0.2-0.7,0.4-1,0.6c-0.3,0.1-0.5,0.2-0.6,0.3
				C1234,218.2,1233.9,218.2,1233.9,218.2z"/>
			<path class="st3" d="M1221.4,221.7c0,0,0,0,0.1-0.1c0.1-0.1,0.2-0.2,0.4-0.3c0.2-0.1,0.3-0.3,0.6-0.5c0.1-0.1,0.2-0.2,0.3-0.3
				c0.1-0.1,0.3-0.2,0.4-0.4c0.5-0.6,1.2-1.2,1.8-2.1c0.7-0.8,1.4-1.8,2.1-2.9c0.2-0.3,0.3-0.6,0.5-0.9c0.1-0.1,0.2-0.3,0.3-0.4
				c0.1-0.2,0.2-0.3,0.2-0.5c0.1-0.2,0.2-0.3,0.2-0.5c0.1-0.2,0.2-0.3,0.2-0.5c0.2-0.3,0.3-0.7,0.5-1c0.6-1.4,1.1-2.8,1.5-4.4
				c0.4-1.6,0.6-3.2,0.7-4.9c0-0.2,0-0.4,0-0.6l0-0.3l0-0.2c0-0.1,0-0.1,0-0.2c0-0.4,0-0.8,0-1.3c0-0.2,0-0.4,0-0.7
				c0-0.2,0-0.4,0-0.6l0-0.6l-0.1-0.6c-0.1-0.8-0.2-1.6-0.4-2.4c-0.1-0.4-0.2-0.8-0.3-1.2c-0.1-0.4-0.3-0.8-0.4-1.1
				c-0.3-0.7-0.7-1.5-1.1-2.1c-0.4-0.7-0.9-1.3-1.3-2c-1-1.3-2-2.4-3-3.6c-0.5-0.6-1-1.2-1.5-1.8c-0.5-0.6-0.9-1.2-1.3-1.8
				c-0.4-0.6-0.7-1.2-1-1.8c-0.3-0.6-0.5-1.2-0.6-1.7c-0.2-0.6-0.3-1.1-0.3-1.6c-0.1-0.5-0.1-0.9-0.1-1.4c0-0.1,0-0.2,0-0.3
				c0-0.1,0-0.2,0-0.3c0-0.2,0-0.3,0-0.5c0-0.3,0-0.6,0-0.8c0-0.2,0-0.4,0.1-0.5c0-0.1,0-0.2,0-0.2s0,0.2,0.1,0.6
				c0.1,0.4,0.2,1,0.4,1.8c0,0.1,0.1,0.2,0.1,0.3c0,0.1,0.1,0.2,0.1,0.3c0,0.1,0,0.1,0,0.2c0,0.1,0,0.1,0.1,0.2
				c0,0.1,0.1,0.2,0.1,0.3c0.2,0.4,0.3,0.9,0.6,1.4c0.5,0.9,1.1,1.9,1.9,2.9c0.2,0.2,0.4,0.5,0.6,0.7c0.2,0.2,0.5,0.5,0.7,0.7
				c0.5,0.5,1,1,1.6,1.5c1.1,1,2.3,2.1,3.5,3.5c0.6,0.7,1.1,1.4,1.7,2.2c0.3,0.4,0.5,0.8,0.7,1.2c0.2,0.4,0.4,0.8,0.6,1.3
				c0.2,0.4,0.4,0.9,0.5,1.4c0.2,0.5,0.3,0.9,0.4,1.4c0.3,0.9,0.4,1.9,0.5,2.9l0.1,0.7l0,0.7c0,0.2,0,0.5,0,0.7c0,0.2,0,0.5,0,0.7
				l0,0.1l0,0.1l0,0.2l0,0.4c0,0.2,0,0.5,0,0.7c0,0.1,0,0.1,0,0.2l0,0.2l0,0.4c0,0.2,0,0.5-0.1,0.7c-0.2,1.9-0.6,3.7-1.1,5.4
				c-0.5,1.7-1.2,3.3-2,4.7c-0.2,0.4-0.4,0.7-0.6,1c-0.1,0.2-0.2,0.3-0.3,0.5c-0.1,0.2-0.2,0.3-0.3,0.5c-0.1,0.2-0.2,0.3-0.3,0.5
				c-0.1,0.1-0.2,0.3-0.3,0.4c-0.2,0.3-0.4,0.6-0.7,0.8c-0.1,0.1-0.1,0.1-0.2,0.2c-0.1,0.1-0.1,0.1-0.2,0.2
				c-0.1,0.1-0.2,0.3-0.3,0.4c-0.2,0.2-0.4,0.5-0.7,0.7c-0.2,0.2-0.4,0.4-0.7,0.6c-0.2,0.2-0.4,0.4-0.6,0.6
				c-0.8,0.7-1.6,1.3-2.3,1.7c-0.3,0.2-0.6,0.4-0.9,0.5c-0.3,0.2-0.5,0.3-0.7,0.4c-0.2,0.1-0.3,0.2-0.4,0.2
				C1221.4,221.6,1221.4,221.7,1221.4,221.7z"/>
		</g>
		<text transform="matrix(1.0156 0 0 1 47.4878 328.6279)" class="st3 st5 st6">BLACK LOTUS SHOP</text>
		<g class="st4">
			<path class="st7" d="M1099.5,595.4c0-4.2,9.3-7.7,20.8-7.7c11.5,0,20.8,3.4,20.8,7.7c0,4.2-9.3,7.7-20.8,7.7
				C1108.7,603.1,1099.5,599.6,1099.5,595.4z"/>
			<g>
				<path class="st8" d="M1138,552.4c0,2.3,1.2,41.8,1.2,41.8s-5.3,6.5-19.4,6.5c-14.2,0-18.5-6.3-18.5-6.3s0.3-40,0.3-42
					c0-10,0.4,1.1,18.2,1.1C1137.7,553.6,1138,542.5,1138,552.4z"/>
				<path class="st8" d="M1137.9,549.8c0,3.6-8.1,6.4-18,6.4c-10,0-18-2.9-18-6.4c0-3.6,8.1-6.4,18-6.4
					C1129.8,543.4,1137.9,546.2,1137.9,549.8z"/>
				<g>
					<path class="st8" d="M1137.3,584.1c-1.1,0-1.8-0.1-2-0.1l0.9-5.7c0.2,0,5.8,0.7,7.7-3.3c2.5-5,1.1-10.7-0.8-12.4
						c-2.9-2.5-5.3-1.7-5.5-1.6l0.1,0l-2.2-5.4c2.1-0.9,6.9-1.3,11.5,2.6c4,3.4,6,11.8,2.3,19.3c-1.6,3.3-4.6,5.5-8.5,6.3
						C1139.3,584,1138.2,584.1,1137.3,584.1z"/>
				</g>
				<g>
					<defs>
						<path id="XMLID_10_" d="M1119.8,598.2c-9.5,0-13.9-3.2-15.4-4.6c0.1-6.7,0.2-35.8,0.2-41.9c3,1.7,7.8,2.9,15.2,2.9
							c7.4,0,12.1-1.3,15.1-3c0.1,6,0.9,34.7,1.1,41.7C1134.3,594.9,1129.4,598.2,1119.8,598.2z"/>
					</defs>
					<use xlink:href="#XMLID_10_"  style="overflow:visible;fill:#C2C1C0;"/>
					<clipPath id="XMLID_2_">
						<use xlink:href="#XMLID_10_"  style="overflow:visible;"/>
					</clipPath>
					<g class="st9">
						<path class="st0" d="M1137.4,549.2c0,0,0.1-0.1,0.1-0.1C1137.4,549.2,1137.4,549.2,1137.4,549.2z"/>
						<path class="st0" d="M1143.2,551c0.1-1.7-1.5-3.3-3.2-2.9c-0.4,0.1-1.6,0.4-1.5,0.4c-0.1,0.1-1,0.6-1.1,0.7
							c-1,0.6-1.4,1.1-2.2,1.5c-1.6,0.9-3.1,1.5-4.6,1.9c-3.6,1-7.2,1.1-10.7,1.3c-3,0.1-6,0.3-8.9,0.1c-1.6-0.1-3.2-0.3-4.8-0.5
							c-0.7-0.1-1.4-0.3-2.1-0.4c-0.5-0.1-0.9-0.4-1.5-0.4c-0.5,0-0.9,0.2-1.1,0.7c-0.5,1.3,0.3,2.3,1.4,3c1.6,1.1,3.7,2.1,5.5,2.5
							c3.6,0.8,7.6,1.2,11.2,1.2c5.4,0,9.5-0.4,13.3-1.4c2.2-0.6,4-1.4,6-2.6c1-0.6,1.7-0.6,2.5-1.3c0.6-0.5,1.2-1.4,1.5-2.1
							c0.2-0.4,0.3-0.8,0.3-1.2C1143.1,550.8,1143.1,550.6,1143.2,551z"/>
						<path class="st0" d="M1140,548.2C1140,548.2,1140,548.2,1140,548.2C1140.2,548.1,1140.3,548.1,1140,548.2z"/>
					</g>
				</g>
				<path class="st10" d="M1138,549.9c-0.1,3.6-8.2,6.4-18.2,6.4c-10,0-18.1-3.3-18.1-6.9c0-3.6,8.2-6,18.1-6
					C1129.8,543.4,1138.1,545.8,1138,549.9z"/>
				<g>
					<defs>
						<path id="XMLID_9_" d="M1136.2,549.6c0,3-7.3,5.2-16.3,5.2c-9,0-16.2-2.2-16.2-5.2c0-3,7.1-5.4,16.1-5.4
							C1128.9,544.2,1136.2,546.6,1136.2,549.6z"/>
					</defs>
					<use xlink:href="#XMLID_9_"  style="overflow:visible;fill:#E1CAC4;"/>
					<clipPath id="XMLID_4_">
						<use xlink:href="#XMLID_9_"  style="overflow:visible;"/>
					</clipPath>
				</g>
				<path class="st0" d="M1113.4,594.1c-1.3-0.7-2.8-1-4.2-1.7c-0.7-0.3-1.2,0.5-0.6,1c1.3,1,2.8,1.6,4.5,1.7
					C1113.6,595.1,1113.9,594.4,1113.4,594.1z"/>
				<path class="st0" d="M1125.8,595.5c-1.3,0.2-2.7,0-3.9,0.3c-0.2,0-0.3,0.4-0.1,0.5c1.2,0.7,2.9,0.6,4.3,0.4
					C1126.8,596.5,1126.6,595.3,1125.8,595.5z"/>
				<path class="st0" d="M1118.6,577.9c-0.1-2.4-0.2-4.8-0.5-7.1c0-0.2-0.3-0.1-0.3,0.1c0.2,2.5,0.1,5.1,0,7.6
					c-0.1,2.2-0.3,4.5,0,6.7c0.1,0.4,0.6,0.3,0.7,0C1118.9,582.8,1118.6,580.3,1118.6,577.9z"/>
				<path class="st0" d="M1133.4,574.9c-0.1-0.6-1.1-0.7-1.1,0c-0.4,5.2,0.4,10.3,0.3,15.5c0,0.4,0.6,0.4,0.6,0
					C1133.9,585.3,1133.8,580.1,1133.4,574.9z"/>
				<path class="st0" d="M1148.2,562.7c-0.8-2.8-3.3-4.9-6.1-5.6c-0.7-0.2-1,0.8-0.3,1c2.5,0.8,4.3,2.6,5.3,5
					C1147.3,563.7,1148.4,563.4,1148.2,562.7z"/>
				<path class="st0" d="M1149.1,567.3c-0.1-0.3-0.5-0.1-0.5,0.2c0.1,1.6-0.3,3.1-0.7,4.7c-0.1,0.4,0.4,0.6,0.6,0.2
					C1149.3,570.8,1149.7,569.1,1149.1,567.3z"/>
				<path class="st0" d="M1106.2,553.2c-0.8-0.6-1.7-1-2.2-1.8c-0.5-0.8-0.3-1.7-0.5-2.6c0-0.1-0.1-0.1-0.2-0.1
					c-0.9,0.7-0.7,2.2-0.3,3.1c0.5,1.1,1.8,2,3,2.1C1106.3,553.9,1106.5,553.4,1106.2,553.2z"/>
				<path class="st0" d="M1135.2,547.8c-0.4-0.5-1.1-0.9-1.8-0.9c0,0,0,0,0,0c-0.1,0-0.2,0-0.3,0c-0.2,0-0.5,0-0.7,0
					c-0.5,0.1-0.9,0.3-1.3,0.6c0,0,0,0-0.1,0.1c-0.4-1.6-1.8-3.1-3.6-3.1c-1,0-2,0.3-2.7,0.8c-0.8-1.4-2.4-2.1-4-1.8
					c-0.7,0.1-1.3,0.4-1.8,0.9c-0.1,0.1-0.2,0.2-0.2,0.3l-0.1,0c-0.5-0.3-1-0.5-1.6-0.5c-0.3,0-0.6,0-0.8,0
					c-0.6,0.1-1.1,0.4-1.6,0.8c-0.3,0.3-0.6,0.7-0.8,1.1c-0.2-0.2-0.4-0.4-0.6-0.6c-0.5-0.3-1-0.5-1.6-0.5l-0.9,0
					c-0.6,0.1-1.1,0.4-1.6,0.8c-0.5,0.4-0.8,1-1,1.6c-0.5-0.3-1.2-0.4-1.8-0.3c-0.5,0.1-0.9,0.3-1.3,0.6c-0.2,0.2-0.4,0.4-0.5,0.5
					c-0.3,0.4-0.5,0.8-0.5,1.3v0c0,0.2,0.1,0.5,0.1,0.7c0.1,0.5,0.3,0.9,0.7,1.3c0.3,0.3,0.6,0.6,1,0.7c1.6,0.9,5.5,2.4,14,2.4
					c12.5,0,15.1-3.2,15.1-3.2c0,0,0-0.1,0-0.1c0,0,0,0,0,0c0.5-0.5,0.8-1.1,0.9-1.8C1135.9,549,1135.7,548.3,1135.2,547.8z"/>
				<path class="st0" d="M1105,561.9c0-0.1-0.2-0.1-0.2,0c-0.7,4.3-0.6,8.7-0.8,13c-0.2,4.2-0.5,8.5,0,12.6c0.1,0.8,1.3,0.7,1.4-0.1
					c0.2-4.3,0-8.7,0-13.1C1105.3,570.3,1105.6,565.9,1105,561.9z"/>
				<g class="st11">
					<path class="st12" d="M1112.2,583.9c-1.2,0-1.4,1.9-0.1,1.9C1113.3,585.9,1113.4,583.9,1112.2,583.9z"/>
					<path class="st12" d="M1112.3,576.9c-1.1,0-1.3,1.8-0.1,1.8C1113.3,578.7,1113.5,576.9,1112.3,576.9z"/>
					<path class="st12" d="M1117.2,566.6c-0.9,0-1,1.3-0.1,1.3C1118,567.9,1118.1,566.6,1117.2,566.6z"/>
					<path class="st12" d="M1111.7,568.2c-0.1-0.4-0.5-0.5-0.8-0.4c-0.3,0.1-0.6,0.4-0.5,0.8c0.1,0.3,0.4,0.6,0.8,0.5
						c0.2,0,0.3-0.1,0.4-0.3C1111.7,568.7,1111.8,568.5,1111.7,568.2z"/>
					<path class="st12" d="M1120.7,563.8c-1,0-1.1,1.5-0.1,1.5C1121.5,565.3,1121.6,563.8,1120.7,563.8z"/>
					<path class="st12" d="M1125.4,576.8c-1.1,0-1.2,1.6-0.1,1.6C1126.3,578.5,1126.5,576.8,1125.4,576.8z"/>
					<path class="st12" d="M1122.9,586.6c-1.1,0-1.2,1.7-0.1,1.7C1123.8,588.3,1124,586.6,1122.9,586.6z"/>
					<path class="st12" d="M1129.8,590.6c-1.2,0-1.3,1.8-0.1,1.8C1130.9,592.4,1131,590.6,1129.8,590.6z"/>
					<path class="st12" d="M1118.9,590.1c-1.1,0-1.2,1.7-0.1,1.7C1119.9,591.7,1120,590.1,1118.9,590.1z"/>
					<path class="st12" d="M1107.1,588.1c-0.8,0-0.9,1.2-0.1,1.2C1107.8,589.3,1107.9,588.1,1107.1,588.1z"/>
					<path class="st12" d="M1128.7,582.4c-0.2-0.2-0.5-0.3-0.7-0.4c-0.4,0-0.8,0.1-1,0.5c0,0.1-0.1,0.1-0.1,0.2
						c-0.1,0.1-0.2,0.3-0.2,0.5c0,0.3,0.1,0.5,0.3,0.8c0.3,0.3,0.8,0.5,1.2,0.2c0.1,0,0.1-0.1,0.2-0.1
						C1129,583.8,1129.2,583,1128.7,582.4z"/>
					<path class="st12" d="M1126.6,568.9c-0.7,0-0.8,1-0.1,1C1127.2,570,1127.3,568.9,1126.6,568.9z"/>
					<path class="st12" d="M1133.3,567.8c-0.7,0-0.8,1.1-0.1,1.1C1133.9,568.9,1134,567.8,1133.3,567.8z"/>
					<path class="st12" d="M1131.9,562.9c-0.7,0-0.8,1.2-0.1,1.2C1132.5,564,1132.6,562.9,1131.9,562.9z"/>
					<path class="st12" d="M1124,564.2c-0.7,0-0.8,1.1-0.1,1.1C1124.6,565.3,1124.7,564.2,1124,564.2z"/>
					<path class="st12" d="M1108.4,561.6c-1,0-1.1,1.5-0.1,1.5C1109.2,563.1,1109.4,561.6,1108.4,561.6z"/>
					<g>
						<path class="st12" d="M1108.5,574.6c-0.4-0.5-1.3-0.3-1.4,0.3c0,0,0,0,0,0.1c0,0,0,0.1,0,0.1c0,0,0-0.1,0-0.1c0,0,0,0,0,0
							c-0.1,0.2,0,0.5,0.1,0.7c0.2,0.3,0.5,0.3,0.9,0.2c-0.1,0-0.1,0-0.2,0c0.3,0,0.6-0.1,0.8-0.4
							C1108.7,575.3,1108.7,574.9,1108.5,574.6z"/>
						<path class="st12" d="M1108,575.9C1108,576,1108,576,1108,575.9C1108.2,575.9,1108.2,575.9,1108,575.9z"/>
						<path class="st12" d="M1107,575C1107,574.9,1107,574.9,1107,575C1107,574.9,1107,574.9,1107,575C1107,575,1107,575,1107,575
							C1107,575,1107,575,1107,575z"/>
					</g>
					<path class="st12" d="M1121.8,571.5c-1.2,0-1.4,1.9-0.1,1.9C1122.9,573.4,1123,571.5,1121.8,571.5z"/>
				</g>
			</g>
		</g>
		<g class="st4">
			<path class="st7" d="M719.3,608.4c0-1.2,5.1-2.2,11.4-2.2c6.3,0,11.4,1,11.4,2.2c0,1.2-5.1,2.2-11.4,2.2
				C724.4,610.7,719.3,609.7,719.3,608.4z"/>
			<g>
				<path class="st8" d="M746.6,547.6c0,6.7-1.3,27.1-15.8,27.1c-14.5,0-15.9-20.3-15.9-27.1c0-6.7,0.3,0.8,15.9,0.8
					C746.2,548.3,746.6,540.8,746.6,547.6z"/>
				<path class="st13" d="M744.2,545.6c-0.7-2-6.4-3.5-13.5-3.5c-7.1,0-12.9,1.6-13.5,3.6c-0.1,0.3-0.2,1-0.2,2.3
					c0,6.1,1.2,25.8,13.7,25.8c12.5,0,13.6-19.7,13.6-25.8C744.4,546.6,744.3,545.9,744.2,545.6z"/>
				<g>
					<defs>
						<path id="XMLID_8_" d="M743.7,554.2c-0.7-2-6-3.3-13-3.3c-7.1,0-12.4,1.5-13,3.5c-0.1,0.3-0.2,1.8,0.1,3.7
							c1.3,8.6,5.6,14.5,12.9,14.5c7.3,0,11.6-5.8,12.9-14.3C743.9,557,743.9,554.5,743.7,554.2z"/>
					</defs>
					<use xlink:href="#XMLID_8_"  style="overflow:visible;fill:#D8D6D6;"/>
					<clipPath id="XMLID_5_">
						<use xlink:href="#XMLID_8_"  style="overflow:visible;"/>
					</clipPath>
					<ellipse class="st14" cx="730.7" cy="554" rx="13.3" ry="3.1"/>
				</g>
				<path class="st8" d="M735.3,605.5c-2.7-0.9-3.5-1.8-3.5-4.7s0-7.2,0-14.8c0-12.1,2.5-12.1,2.5-12.1l-3.7,0l-3.8,0
					c0,0,2.4,0,2.4,12.1c0,7.6,0,11.8,0,14.8s-0.6,3.8-3.3,4.7c-2.7,0.9-5.8,1.8-2.8,2.9c3,1,5.2,1.2,7.6,1.2c2.4,0,4.5-0.1,7.5-1.2
					C741.3,607.3,738.1,606.4,735.3,605.5z"/>
				<path class="st8" d="M746.4,545.4c0,2.4-7,4.4-15.7,4.4s-15.7-2-15.7-4.4c0-2.4,7-4.4,15.7-4.4S746.4,543,746.4,545.4z"/>
				<path class="st0" d="M738.8,565.3c-0.9,2.2-2.6,3.5-4.4,4.8c-0.4,0.3,0,0.9,0.4,0.8c2.3-0.7,4.1-3.1,4.8-5.4
					C739.8,565,739,564.8,738.8,565.3z"/>
				<path class="st0" d="M724.8,569.2c-0.9-1.2-1.8-2.5-2.8-3.7c-0.1-0.1-0.2,0-0.2,0.1c0.4,1.6,1.2,3.1,2.5,4.1
					C724.7,570,725.1,569.5,724.8,569.2z"/>
				<path class="st0" d="M740.6,561.5c-0.2,0.4-0.3,0.9-0.2,1.4c0,0.2,0.3,0.3,0.5,0.2c0.4-0.3,0.4-0.7,0.6-1.1
					C741.6,561.4,740.8,561,740.6,561.5z"/>
				<path class="st0" d="M720.4,561.4c-0.4-2.3-1-4.5-1.2-6.8c-0.1-1.3,0-2.7,0-4c0-0.9,0.3-1.8,0-2.7c0-0.1-0.3-0.1-0.3,0
					c-0.1,1-0.4,2-0.5,3c-0.1,1.3-0.2,2.5-0.1,3.8c0.1,2.4,0.6,4.7,1.3,6.9C719.8,561.9,720.5,561.8,720.4,561.4z"/>
				<path class="st0" d="M727.3,607.9c-0.6-0.1-1.2-0.3-1.7-0.5c-0.2-0.1-0.3,0.2-0.1,0.3c0.5,0.3,1.1,0.5,1.7,0.6
					C727.4,608.3,727.6,607.9,727.3,607.9z"/>
				<path class="st0" d="M735.7,606.6c-0.2-0.1-0.3,0.2-0.2,0.3c0,0,0.1,0.1,0.1,0.1c-0.1,0.1-0.2,0.1-0.3,0.1
					c-0.4,0.1-0.7,0.1-1.1,0.2c-0.7,0.1-1.3,0-1.9,0.2c-0.3,0.1-0.2,0.5,0,0.6c0.9,0.3,2,0.1,2.9-0.2
					C735.9,607.7,736.7,607,735.7,606.6z"/>
				<path class="st0" d="M729.4,575.2c-0.2-0.2-0.5,0-0.4,0.3c0.5,1.1,0.7,2.2,0.9,3.3c0.1,0.4,0.6,0.3,0.6-0.1
					C730.3,577.5,730.2,576.3,729.4,575.2z"/>
				<path class="st0" d="M743.1,549.3c-0.2-0.3-0.7-0.2-0.6,0.2c0.2,1.1,0.2,2.1,0.2,3.2c0,0.4,0.6,0.6,0.8,0.2
					C743.9,551.6,743.7,550.4,743.1,549.3z"/>
			</g>
		</g>
		<g class="st4">
			<path class="st7" d="M310.5,595c0-4,9.2-7.3,20.7-7.3c11.4,0,20.7,3.3,20.7,7.3c0,4-9.2,7.3-20.7,7.3
				C319.7,602.3,310.5,599.1,310.5,595z"/>
			<g>
				<g>
					<g>
						<path class="st15" d="M352.3,555.6c0,2.6,0.1,27.6,0,29.9c-0.4,7.8-3.4,14.2-21,14.2c-18.3,0-20.7-6.8-21-15.1
							c-0.1-2.1,0-26.7,0-28.9c0-11.5,0.4,1.3,21,1.3C351.8,557,352.3,544.1,352.3,555.6z"/>
						<path class="st15" d="M352.1,551.9c0,4.1-9.3,7.4-20.8,7.4c-11.5,0-20.8-3.3-20.8-7.4c0-4.1,9.3-7.4,20.8-7.4
							C342.7,544.5,352.1,547.8,352.1,551.9z"/>
						<g>
							<defs>
								<path id="XMLID_3_" d="M350.1,551.7c0,3.5-8.4,6.3-18.9,6.3c-10.4,0-18.9-2.8-18.9-6.3c0-3.5,8.4-6.3,18.9-6.3
									C341.7,545.4,350.1,548.2,350.1,551.7z"/>
							</defs>
							<use xlink:href="#XMLID_3_"  style="overflow:visible;fill:#D5B894;"/>
							<clipPath id="XMLID_6_">
								<use xlink:href="#XMLID_3_"  style="overflow:visible;"/>
							</clipPath>
							<path class="st16" d="M312,555.5c0,3.2,8.4,5.7,18.9,5.7c10.4,0,18.9-2.6,18.9-5.7c0-3.2-8.4-5.7-18.9-5.7
								C320.5,549.8,312,552.4,312,555.5z"/>
						</g>
					</g>
					<g>
						<path class="st15" d="M352.2,588.2c-1.8,0-3.5-0.3-4.7-0.7l1.8-5.4c0.6,0.2,6.2,1.8,8.5-2.7c3.2-6.3,2.8-15.8,0.6-17.7
							c-1.3-1.1-2.5-1.4-4.1-0.8c-1.3,0.5-2.3,1.4-2.3,1.4l-4-4.1c0.2-0.2,1.8-1.7,4.3-2.7c3.6-1.4,7.1-0.7,9.9,1.8
							c3.1,2.8,3.6,8.3,3.6,11.3c0,4.7-1.1,9.6-3,13.3C360.4,586.8,356,588.2,352.2,588.2z"/>
					</g>
				</g>
			</g>
		</g>
		<rect x="784.3" y="572.8" class="st3" width="244.5" height="16.6"/>
		<rect x="430.6" y="572.1" class="st3" width="244.5" height="16.6"/>
	</g>
</g>
</svg>
