<?xml version="1.0" encoding="UTF-8"?>
<svg width="1977px" height="272px" viewBox="0 0 1977 272" version="1.1" xmlns="http://www.w3.org/2000/svg" xmlns:xlink="http://www.w3.org/1999/xlink">
    <!-- Generator: Sketch 46.2 (44496) - http://www.bohemiancoding.com/sketch -->
    <title>Architecture</title>
    <desc>Created with Sketch.</desc>
    <defs></defs>
    <g id="Design" stroke="none" stroke-width="1" fill="none" fill-rule="evenodd">
        <path d="M177.56,214.16 L78.92,214.16 L60.56,266 L0.8,266 L96.92,10.76 L162.8,10.76 L257.84,266 L195.92,266 L177.56,214.16 Z M97.64,162.32 L159.56,162.32 L128.96,74.12 L97.64,162.32 Z M382.76,141.08 C379.639984,140.359996 376.640014,139.880001 373.76,139.64 C370.879986,139.399999 368.120013,139.28 365.48,139.28 C359.959972,139.28 354.680025,140.119992 349.64,141.8 C344.599975,143.480008 340.160019,146.239981 336.32,150.08 C332.479981,153.920019 329.420011,158.959969 327.14,165.2 C324.859989,171.440031 323.72,178.999956 323.72,187.88 L323.72,266 L269,266 L269,87.08 L321.92,87.08 L321.92,111.2 C324.320012,106.159975 327.379981,101.960017 331.1,98.6 C334.820019,95.2399832 338.839978,92.6000096 343.16,90.68 C347.480022,88.7599904 351.859978,87.3800042 356.3,86.54 C360.740022,85.6999958 364.759982,85.28 368.36,85.28 C373.880028,85.28 378.67998,85.879994 382.76,87.08 L382.76,141.08 Z M479.96,132.08 C474.199971,132.08 468.860025,133.03999 463.94,134.96 C459.019975,136.88001 454.700019,139.759981 450.98,143.6 C447.259981,147.440019 444.320011,152.119972 442.16,157.64 C439.999989,163.160028 438.92,169.519964 438.92,176.72 C438.92,183.920036 440.059989,190.219973 442.34,195.62 C444.620011,201.020027 447.619981,205.639981 451.34,209.48 C455.060019,213.320019 459.439975,216.19999 464.48,218.12 C469.520025,220.04001 474.919971,221 480.68,221 C491.240053,221 499.579969,218.240028 505.7,212.72 C511.820031,207.199972 515.83999,201.080034 517.76,194.36 L566,209.12 C564.07999,217.04004 560.780023,224.719963 556.1,232.16 C551.419977,239.600037 545.480036,246.199971 538.28,251.96 C531.079964,257.720029 522.680048,262.399982 513.08,266 C503.479952,269.600018 492.68006,271.4 480.68,271.4 C467.239933,271.4 454.700058,269.060023 443.06,264.38 C431.419942,259.699977 421.280043,253.160042 412.64,244.76 C403.999957,236.359958 397.160025,226.400058 392.12,214.88 C387.079975,203.359942 384.56,190.64007 384.56,176.72 C384.56,162.79993 387.019975,150.020058 391.94,138.38 C396.860025,126.739942 403.579957,116.720042 412.1,108.32 C420.620043,99.919958 430.579943,93.3800234 441.98,88.7 C453.380057,84.0199766 465.679934,81.68 478.88,81.68 C491.120061,81.68 502.159951,83.4199826 512,86.9 C521.840049,90.3800174 530.359964,94.9999712 537.56,100.76 C544.760036,106.520029 550.639977,113.179962 555.2,120.74 C559.760023,128.300038 562.99999,136.03996 564.92,143.96 L515.96,158.72 C514.999995,155.359983 513.56001,152.060016 511.64,148.82 C509.71999,145.579984 507.320014,142.700013 504.44,140.18 C501.559986,137.659987 498.08002,135.680007 494,134.24 C489.91998,132.799993 485.240026,132.08 479.96,132.08 Z M638,266 L583.28,266 L583.28,5.36 L638,5.36 L638,98.6 C643.520028,93.0799724 650.539957,89.0000132 659.06,86.36 C667.580043,83.7199868 675.79996,82.4 683.72,82.4 C695.480059,82.4 705.619957,84.2599814 714.14,87.98 C722.660043,91.7000186 729.679972,96.7999676 735.2,103.28 C740.720028,109.760032 744.799987,117.319957 747.44,125.96 C750.080013,134.600043 751.4,143.839951 751.4,153.68 L751.4,266 L696.68,266 L696.68,163.04 C696.68,154.159956 694.340023,146.780029 689.66,140.9 C684.979977,135.019971 677.60005,132.08 667.52,132.08 C658.879957,132.08 651.920026,134.779973 646.64,140.18 C641.359974,145.580027 638.480002,152.479958 638,160.88 L638,266 Z M781.28,266 L781.28,87.08 L836,87.08 L836,266 L781.28,266 Z M776.6,32.36 C776.6,28.0399784 777.439992,23.9000198 779.12,19.94 C780.800008,15.9799802 783.079986,12.5600144 785.96,9.68 C788.840014,6.7999856 792.199981,4.5200084 796.04,2.84 C799.880019,1.1599916 803.959978,0.32 808.28,0.32 C817.400046,0.32 825.079969,3.4399688 831.32,9.68 C837.560031,15.9200312 840.68,23.4799556 840.68,32.36 C840.68,41.2400444 837.560031,48.7999688 831.32,55.04 C825.079969,61.2800312 817.400046,64.4 808.28,64.4 C803.959978,64.4 799.880019,63.5600084 796.04,61.88 C792.199981,60.1999916 788.840014,57.9200144 785.96,55.04 C783.079986,52.1599856 780.800008,48.7400198 779.12,44.78 C777.439992,40.8199802 776.6,36.6800216 776.6,32.36 Z M933.2,87.08 L968.12,87.08 L968.12,134.96 L933.2,134.96 L933.2,201.92 C933.2,209.360037 934.999982,214.339987 938.6,216.86 C942.200018,219.380013 946.99997,220.64 953,220.64 C955.880014,220.64 958.579987,220.460002 961.1,220.1 C963.620013,219.739998 965.719992,219.320002 967.4,218.84 L967.4,264.2 C966.199994,264.680002 963.320023,265.639993 958.76,267.08 C954.199977,268.520007 947.600043,269.24 938.96,269.24 C920.239906,269.24 905.600053,264.140051 895.04,253.94 C884.479947,243.739949 879.2,229.64009 879.2,211.64 L879.2,134.96 L847.52,134.96 L847.52,87.08 L856.52,87.08 C865.880047,87.08 872.839977,84.3200276 877.4,78.8 C881.960023,73.2799724 884.24,66.320042 884.24,57.92 L884.24,34.88 L933.2,34.88 L933.2,87.08 Z M1101.68,155.12 C1101.44,151.759983 1100.66001,148.280018 1099.34,144.68 C1098.01999,141.079982 1095.92001,137.840014 1093.04,134.96 C1090.15999,132.079986 1086.50002,129.68001 1082.06,127.76 C1077.61998,125.83999 1072.16003,124.88 1065.68,124.88 C1059.91997,124.88 1054.88002,125.83999 1050.56,127.76 C1046.23998,129.68001 1042.58001,132.079986 1039.58,134.96 C1036.57998,137.840014 1034.30001,141.079982 1032.74,144.68 C1031.17999,148.280018 1030.28,151.759983 1030.04,155.12 L1101.68,155.12 Z M1151.36,214.52 C1149.19999,222.200038 1145.84002,229.519965 1141.28,236.48 C1136.71998,243.440035 1130.96003,249.499974 1124,254.66 C1117.03997,259.820026 1108.94005,263.899985 1099.7,266.9 C1090.45995,269.900015 1080.20006,271.4 1068.92,271.4 C1056.67994,271.4 1044.92006,269.240022 1033.64,264.92 C1022.35994,260.599978 1012.40004,254.360041 1003.76,246.2 C995.119957,238.039959 988.280025,228.080059 983.24,216.32 C978.199975,204.559941 975.68,191.120076 975.68,176 C975.68,161.599928 978.139975,148.580058 983.06,136.94 C987.980025,125.299942 994.579959,115.400041 1002.86,107.24 C1011.14004,99.0799592 1020.67995,92.7800222 1031.48,88.34 C1042.28005,83.8999778 1053.43994,81.68 1064.96,81.68 C1092.80014,81.68 1114.69992,89.7199196 1130.66,105.8 C1146.62008,121.88008 1154.6,144.439855 1154.6,173.48 C1154.6,177.320019 1154.48,180.979983 1154.24,184.46 C1154,187.940017 1153.76,189.919998 1153.52,190.4 L1028.96,190.4 C1029.2,195.440025 1030.45999,200.059979 1032.74,204.26 C1035.02001,208.460021 1038.01998,212.119984 1041.74,215.24 C1045.46002,218.360016 1049.71998,220.759992 1054.52,222.44 C1059.32002,224.120008 1064.35997,224.96 1069.64,224.96 C1079.72005,224.96 1087.57997,222.800022 1093.22,218.48 C1098.86003,214.159978 1102.99999,208.520035 1105.64,201.56 L1151.36,214.52 Z M1256.12,132.08 C1250.35997,132.08 1245.02002,133.03999 1240.1,134.96 C1235.17998,136.88001 1230.86002,139.759981 1227.14,143.6 C1223.41998,147.440019 1220.48001,152.119972 1218.32,157.64 C1216.15999,163.160028 1215.08,169.519964 1215.08,176.72 C1215.08,183.920036 1216.21999,190.219973 1218.5,195.62 C1220.78001,201.020027 1223.77998,205.639981 1227.5,209.48 C1231.22002,213.320019 1235.59997,216.19999 1240.64,218.12 C1245.68003,220.04001 1251.07997,221 1256.84,221 C1267.40005,221 1275.73997,218.240028 1281.86,212.72 C1287.98003,207.199972 1291.99999,201.080034 1293.92,194.36 L1342.16,209.12 C1340.23999,217.04004 1336.94002,224.719963 1332.26,232.16 C1327.57998,239.600037 1321.64004,246.199971 1314.44,251.96 C1307.23996,257.720029 1298.84005,262.399982 1289.24,266 C1279.63995,269.600018 1268.84006,271.4 1256.84,271.4 C1243.39993,271.4 1230.86006,269.060023 1219.22,264.38 C1207.57994,259.699977 1197.44004,253.160042 1188.8,244.76 C1180.15996,236.359958 1173.32003,226.400058 1168.28,214.88 C1163.23997,203.359942 1160.72,190.64007 1160.72,176.72 C1160.72,162.79993 1163.17998,150.020058 1168.1,138.38 C1173.02002,126.739942 1179.73996,116.720042 1188.26,108.32 C1196.78004,99.919958 1206.73994,93.3800234 1218.14,88.7 C1229.54006,84.0199766 1241.83993,81.68 1255.04,81.68 C1267.28006,81.68 1278.31995,83.4199826 1288.16,86.9 C1298.00005,90.3800174 1306.51996,94.9999712 1313.72,100.76 C1320.92004,106.520029 1326.79998,113.179962 1331.36,120.74 C1335.92002,128.300038 1339.15999,136.03996 1341.08,143.96 L1292.12,158.72 C1291.16,155.359983 1289.72001,152.060016 1287.8,148.82 C1285.87999,145.579984 1283.48001,142.700013 1280.6,140.18 C1277.71999,137.659987 1274.24002,135.680007 1270.16,134.24 C1266.07998,132.799993 1261.40003,132.08 1256.12,132.08 Z M1424.96,87.08 L1459.88,87.08 L1459.88,134.96 L1424.96,134.96 L1424.96,201.92 C1424.96,209.360037 1426.75998,214.339987 1430.36,216.86 C1433.96002,219.380013 1438.75997,220.64 1444.76,220.64 C1447.64001,220.64 1450.33999,220.460002 1452.86,220.1 C1455.38001,219.739998 1457.47999,219.320002 1459.16,218.84 L1459.16,264.2 C1457.95999,264.680002 1455.08002,265.639993 1450.52,267.08 C1445.95998,268.520007 1439.36004,269.24 1430.72,269.24 C1411.99991,269.24 1397.36005,264.140051 1386.8,253.94 C1376.23995,243.739949 1370.96,229.64009 1370.96,211.64 L1370.96,134.96 L1339.28,134.96 L1339.28,87.08 L1348.28,87.08 C1357.64005,87.08 1364.59998,84.3200276 1369.16,78.8 C1373.72002,73.2799724 1376,66.320042 1376,57.92 L1376,34.88 L1424.96,34.88 L1424.96,87.08 Z M1599.56,266 C1599.08,264.319992 1598.72,261.50002 1598.48,257.54 C1598.24,253.57998 1598.12,250.400012 1598.12,248 C1593.31998,255.680038 1586.42004,261.259983 1577.42,264.74 C1568.41995,268.220017 1559.36005,269.96 1550.24,269.96 C1539.43995,269.96 1529.78004,268.100019 1521.26,264.38 C1512.73996,260.659981 1505.60003,255.620032 1499.84,249.26 C1494.07997,242.899968 1489.70001,235.520042 1486.7,227.12 C1483.69998,218.719958 1482.2,209.720048 1482.2,200.12 L1482.2,87.08 L1536.92,87.08 L1536.92,188.6 C1536.92,197.240043 1539.25998,204.55997 1543.94,210.56 C1548.62002,216.56003 1555.87995,219.56 1565.72,219.56 C1574.84005,219.56 1582.09997,216.740028 1587.5,211.1 C1592.90003,205.459972 1595.6,198.080046 1595.6,188.96 L1595.6,87.08 L1650.32,87.08 L1650.32,233.96 C1650.32,242.120041 1650.56,249.139971 1651.04,255.02 C1651.52,260.900029 1651.88,264.559993 1652.12,266 L1599.56,266 Z M1796.12,141.08 C1792.99998,140.359996 1790.00001,139.880001 1787.12,139.64 C1784.23999,139.399999 1781.48001,139.28 1778.84,139.28 C1773.31997,139.28 1768.04003,140.119992 1763,141.8 C1757.95997,143.480008 1753.52002,146.239981 1749.68,150.08 C1745.83998,153.920019 1742.78001,158.959969 1740.5,165.2 C1738.21999,171.440031 1737.08,178.999956 1737.08,187.88 L1737.08,266 L1682.36,266 L1682.36,87.08 L1735.28,87.08 L1735.28,111.2 C1737.68001,106.159975 1740.73998,101.960017 1744.46,98.6 C1748.18002,95.2399832 1752.19998,92.6000096 1756.52,90.68 C1760.84002,88.7599904 1765.21998,87.3800042 1769.66,86.54 C1774.10002,85.6999958 1778.11998,85.28 1781.72,85.28 C1787.24003,85.28 1792.03998,85.879994 1796.12,87.08 L1796.12,141.08 Z M1923.92,155.12 C1923.68,151.759983 1922.90001,148.280018 1921.58,144.68 C1920.25999,141.079982 1918.16001,137.840014 1915.28,134.96 C1912.39999,132.079986 1908.74002,129.68001 1904.3,127.76 C1899.85998,125.83999 1894.40003,124.88 1887.92,124.88 C1882.15997,124.88 1877.12002,125.83999 1872.8,127.76 C1868.47998,129.68001 1864.82001,132.079986 1861.82,134.96 C1858.81998,137.840014 1856.54001,141.079982 1854.98,144.68 C1853.41999,148.280018 1852.52,151.759983 1852.28,155.12 L1923.92,155.12 Z M1973.6,214.52 C1971.43999,222.200038 1968.08002,229.519965 1963.52,236.48 C1958.95998,243.440035 1953.20003,249.499974 1946.24,254.66 C1939.27997,259.820026 1931.18005,263.899985 1921.94,266.9 C1912.69995,269.900015 1902.44006,271.4 1891.16,271.4 C1878.91994,271.4 1867.16006,269.240022 1855.88,264.92 C1844.59994,260.599978 1834.64004,254.360041 1826,246.2 C1817.35996,238.039959 1810.52003,228.080059 1805.48,216.32 C1800.43997,204.559941 1797.92,191.120076 1797.92,176 C1797.92,161.599928 1800.37998,148.580058 1805.3,136.94 C1810.22002,125.299942 1816.81996,115.400041 1825.1,107.24 C1833.38004,99.0799592 1842.91995,92.7800222 1853.72,88.34 C1864.52005,83.8999778 1875.67994,81.68 1887.2,81.68 C1915.04014,81.68 1936.93992,89.7199196 1952.9,105.8 C1968.86008,121.88008 1976.84,144.439855 1976.84,173.48 C1976.84,177.320019 1976.72,180.979983 1976.48,184.46 C1976.24,187.940017 1976,189.919998 1975.76,190.4 L1851.2,190.4 C1851.44,195.440025 1852.69999,200.059979 1854.98,204.26 C1857.26001,208.460021 1860.25998,212.119984 1863.98,215.24 C1867.70002,218.360016 1871.95998,220.759992 1876.76,222.44 C1881.56002,224.120008 1886.59997,224.96 1891.88,224.96 C1901.96005,224.96 1909.81997,222.800022 1915.46,218.48 C1921.10003,214.159978 1925.23999,208.520035 1927.88,201.56 L1973.6,214.52 Z" id="Architecture" fill="#1A1A1A"></path>
    </g>
</svg>