<?xml version="1.0" encoding="UTF-8"?>
<svg width="1153px" height="272px" viewBox="0 0 1153 272" version="1.1" xmlns="http://www.w3.org/2000/svg" xmlns:xlink="http://www.w3.org/1999/xlink">
    <!-- Generator: Sketch 46.2 (44496) - http://www.bohemiancoding.com/sketch -->
    <title>Nature</title>
    <desc>Created with Sketch.</desc>
    <defs></defs>
    <g id="Page-1" stroke="none" stroke-width="1" fill="none" fill-rule="evenodd">
        <g id="Project-2" transform="translate(-147.000000, -316.000000)" fill="#1A1A1A">
            <path d="M147.02,582 L147.02,326.76 L311.54,326.76 L311.54,380.76 L203.9,380.76 L203.9,434.76 L298.58,434.76 L298.58,486.6 L204.26,486.6 L204.26,582 L147.02,582 Z M308.3,532.68 C308.3,524.75996 309.679986,517.680031 312.44,511.44 C315.200014,505.199969 318.979976,499.860022 323.78,495.42 C328.580024,490.979978 334.159968,487.380014 340.52,484.62 C346.880032,481.859986 353.779963,479.880006 361.22,478.68 L403.34,472.2 C408.140024,471.479996 411.49999,470.040011 413.42,467.88 C415.34001,465.719989 416.3,463.080016 416.3,459.96 C416.3,454.679974 414.080022,450.120019 409.64,446.28 C405.199978,442.439981 398.660043,440.52 390.02,440.52 C380.419952,440.52 373.040026,443.219973 367.88,448.62 C362.719974,454.020027 359.900002,460.079966 359.42,466.8 L311.9,457.08 C312.380002,450.599968 314.299983,443.880035 317.66,436.92 C321.020017,429.959965 325.879968,423.600029 332.24,417.84 C338.600032,412.079971 346.579952,407.280019 356.18,403.44 C365.780048,399.599981 377.179934,397.68 390.38,397.68 C404.780072,397.68 417.01995,399.539981 427.1,403.26 C437.18005,406.980019 445.399968,412.019968 451.76,418.38 C458.120032,424.740032 462.679986,432.119958 465.44,440.52 C468.200014,448.920042 469.58,457.679954 469.58,466.8 L469.58,554.28 C469.58,561.240035 469.879997,567.359974 470.48,572.64 C471.080003,577.920026 471.499999,581.039995 471.74,582 L422.42,582 C422.179999,581.279996 421.820002,579.300016 421.34,576.06 C420.859998,572.819984 420.62,568.080031 420.62,561.84 C415.819976,569.520038 409.220042,575.639977 400.82,580.2 C392.419958,584.760023 382.22006,587.04 370.22,587.04 C360.379951,587.04 351.620038,585.540015 343.94,582.54 C336.259962,579.539985 329.780026,575.520025 324.5,570.48 C319.219974,565.439975 315.200014,559.680032 312.44,553.2 C309.679986,546.719968 308.3,539.880036 308.3,532.68 Z M383.54,547.44 C387.62002,547.44 391.63998,546.900005 395.6,545.82 C399.56002,544.739995 403.039985,542.820014 406.04,540.06 C409.040015,537.299986 411.49999,533.640023 413.42,529.08 C415.34001,524.519977 416.3,518.760035 416.3,511.8 L416.3,503.88 L382.46,509.28 C376.699971,510.240005 371.900019,512.219985 368.06,515.22 C364.219981,518.220015 362.3,522.839969 362.3,529.08 C362.3,533.880024 363.919984,538.139981 367.16,541.86 C370.400016,545.580019 375.859962,547.44 383.54,547.44 Z M531.14,522.96 C531.620002,529.200031 534.079978,534.779975 538.52,539.7 C542.960022,544.620025 549.859953,547.08 559.22,547.08 C566.180035,547.08 571.399983,545.520016 574.88,542.4 C578.360017,539.279984 580.1,535.68002 580.1,531.6 C580.1,528.239983 578.840013,525.300013 576.32,522.78 C573.799987,520.259987 569.180034,518.280007 562.46,516.84 L541.94,512.16 C532.339952,509.999989 524.180034,507.120018 517.46,503.52 C510.739966,499.919982 505.220022,495.720024 500.9,490.92 C496.579978,486.119976 493.46001,480.840029 491.54,475.08 C489.61999,469.319971 488.66,463.320031 488.66,457.08 C488.66,448.919959 490.339983,441.240036 493.7,434.04 C497.060017,426.839964 501.799969,420.540027 507.92,415.14 C514.040031,409.739973 521.299958,405.480016 529.7,402.36 C538.100042,399.239984 547.33995,397.68 557.42,397.68 C570.380065,397.68 581.299956,399.479982 590.18,403.08 C599.060044,406.680018 606.319972,411.179973 611.96,416.58 C617.600028,421.980027 621.739987,427.739969 624.38,433.86 C627.020013,439.980031 628.579998,445.679974 629.06,450.96 L583.7,459.24 C582.979996,453.23997 580.64002,448.080022 576.68,443.76 C572.71998,439.439978 566.540042,437.28 558.14,437.28 C552.859974,437.28 548.300019,438.659986 544.46,441.42 C540.619981,444.180014 538.7,447.959976 538.7,452.76 C538.7,456.600019 540.019987,459.599989 542.66,461.76 C545.300013,463.920011 548.65998,465.359996 552.74,466.08 L576.5,470.76 C595.220094,474.600019 609.079955,481.619949 618.08,491.82 C627.080045,502.020051 631.58,513.719934 631.58,526.92 C631.58,534.600038 630.140014,542.039964 627.26,549.24 C624.379986,556.440036 619.94003,562.859972 613.94,568.5 C607.93997,574.140028 600.500044,578.699983 591.62,582.18 C582.739956,585.660017 572.30006,587.4 560.3,587.4 C546.139929,587.4 534.320047,585.42002 524.84,581.46 C515.359953,577.49998 507.740029,572.640029 501.98,566.88 C496.219971,561.119971 491.960014,555.000032 489.2,548.52 C486.439986,542.039968 484.940001,536.280025 484.7,531.24 L531.14,522.96 Z M705.74,582 L651.02,582 L651.02,321.36 L705.74,321.36 L705.74,414.6 C711.260028,409.079972 718.279957,405.000013 726.8,402.36 C735.320043,399.719987 743.53996,398.4 751.46,398.4 C763.220059,398.4 773.359957,400.259981 781.88,403.98 C790.400043,407.700019 797.419972,412.799968 802.94,419.28 C808.460028,425.760032 812.539987,433.319957 815.18,441.96 C817.820013,450.600043 819.14,459.839951 819.14,469.68 L819.14,582 L764.42,582 L764.42,479.04 C764.42,470.159956 762.080023,462.780029 757.4,456.9 C752.719977,451.019971 745.34005,448.08 735.26,448.08 C726.619957,448.08 719.660026,450.779973 714.38,456.18 C709.099974,461.580027 706.220002,468.479958 705.74,476.88 L705.74,582 Z M849.02,582 L849.02,403.08 L903.74,403.08 L903.74,582 L849.02,582 Z M844.34,348.36 C844.34,344.039978 845.179992,339.90002 846.86,335.94 C848.540008,331.97998 850.819986,328.560014 853.7,325.68 C856.580014,322.799986 859.939981,320.520008 863.78,318.84 C867.620019,317.159992 871.699978,316.32 876.02,316.32 C885.140046,316.32 892.819969,319.439969 899.06,325.68 C905.300031,331.920031 908.42,339.479956 908.42,348.36 C908.42,357.240044 905.300031,364.799969 899.06,371.04 C892.819969,377.280031 885.140046,380.4 876.02,380.4 C871.699978,380.4 867.620019,379.560008 863.78,377.88 C859.939981,376.199992 856.580014,373.920014 853.7,371.04 C850.819986,368.159986 848.540008,364.74002 846.86,360.78 C845.179992,356.81998 844.34,352.680022 844.34,348.36 Z M1017.5,537 C1022.78003,537 1027.81998,536.100009 1032.62,534.3 C1037.42002,532.499991 1041.67998,529.740019 1045.4,526.02 C1049.12002,522.299981 1052.11999,517.680028 1054.4,512.16 C1056.68001,506.639972 1057.82,500.040038 1057.82,492.36 C1057.82,484.919963 1056.68001,478.380028 1054.4,472.74 C1052.11999,467.099972 1049.12002,462.480018 1045.4,458.88 C1041.67998,455.279982 1037.42002,452.580009 1032.62,450.78 C1027.81998,448.979991 1022.78003,448.08 1017.5,448.08 C1012.45997,448.08 1007.48002,448.979991 1002.56,450.78 C997.639975,452.580009 993.320019,455.279982 989.6,458.88 C985.879981,462.480018 982.880011,467.099972 980.6,472.74 C978.319989,478.380028 977.18,484.919963 977.18,492.36 C977.18,499.800037 978.319989,506.339972 980.6,511.98 C982.880011,517.620028 985.879981,522.299981 989.6,526.02 C993.320019,529.740019 997.639975,532.499991 1002.56,534.3 C1007.48002,536.100009 1012.45997,537 1017.5,537 Z M1017.5,397.68 C1030.94007,397.68 1043.41994,400.019977 1054.94,404.7 C1066.46006,409.380023 1076.47996,415.919958 1085,424.32 C1093.52004,432.720042 1100.23998,442.679942 1105.16,454.2 C1110.08002,465.720058 1112.54,478.43993 1112.54,492.36 C1112.54,506.28007 1110.08002,519.059942 1105.16,530.7 C1100.23998,542.340058 1093.52004,552.359958 1085,560.76 C1076.47996,569.160042 1066.46006,575.699977 1054.94,580.38 C1043.41994,585.060023 1030.94007,587.4 1017.5,587.4 C1004.05993,587.4 991.580058,585.060023 980.06,580.38 C968.539942,575.699977 958.520043,569.160042 950,560.76 C941.479957,552.359958 934.760025,542.340058 929.84,530.7 C924.919975,519.059942 922.46,506.28007 922.46,492.36 C922.46,478.43993 924.919975,465.720058 929.84,454.2 C934.760025,442.679942 941.479957,432.720042 950,424.32 C958.520043,415.919958 968.539942,409.380023 980.06,404.7 C991.580058,400.019977 1004.05993,397.68 1017.5,397.68 Z M1186.34,582 L1131.62,582 L1131.62,403.08 L1184.54,403.08 L1184.54,423.6 C1186.94001,419.279978 1190.05998,415.560016 1193.9,412.44 C1197.74002,409.319984 1201.87998,406.74001 1206.32,404.7 C1210.76002,402.65999 1215.43998,401.100005 1220.36,400.02 C1225.28002,398.939995 1230.01998,398.4 1234.58,398.4 C1245.86006,398.4 1255.57996,400.259981 1263.74,403.98 C1271.90004,407.700019 1278.67997,412.799968 1284.08,419.28 C1289.48003,425.760032 1293.43999,433.319957 1295.96,441.96 C1298.48001,450.600043 1299.74,459.839951 1299.74,469.68 L1299.74,582 L1245.02,582 L1245.02,479.04 C1245.02,470.159956 1242.68002,462.780029 1238,456.9 C1233.31998,451.019971 1225.94005,448.08 1215.86,448.08 C1206.73995,448.08 1199.54003,451.019971 1194.26,456.9 C1188.97997,462.780029 1186.34,470.279954 1186.34,479.4 L1186.34,582 Z" id="Nature"></path>
        </g>
    </g>
</svg>