<?xml version="1.0" encoding="utf-8"?>
<!-- Generator: Adobe Illustrator 23.0.1, SVG Export Plug-In . SVG Version: 6.00 Build 0)  -->
<svg version="1.1" id="Layer_2" xmlns="http://www.w3.org/2000/svg" xmlns:xlink="http://www.w3.org/1999/xlink" x="0px" y="0px"
	 viewBox="0 0 1045 272" style="enable-background:new 0 0 1045 272;" xml:space="preserve">
<style type="text/css">
	.st0{fill:#1A1A1A;}
</style>
<path class="st0" d="M208.8,100.4c0.9,7,1.2,12.9,1.2,17.9c0,59.6-42.5,102.4-101.8,102.4C48.6,220.7,2.3,175.8,2.3,118
	c0-57.5,46.1-102.7,105-102.7c43.7,0,82.1,20.5,95.9,59l-46.6,13.5c-11.4-22.3-30.2-28.2-49.3-28.2C75.3,59.6,51,84.8,51,118
	c0,33.4,24.9,58.7,57.8,58.7c25.8,0,44.6-13.5,51.9-35.2h-60.1v-41.1H208.8z M392.1,216.3h-46.9v-11.7
	c-11.4,10.3-26.7,16.1-45.8,16.1c-39,0-71.9-31.4-71.9-78c0-46.3,32.9-78,71.9-78c19.1,0,34.3,5.9,45.8,16.1V69h46.9V216.3z
	 M345.2,142.6c0-22.6-17-38.1-36.1-38.1c-20.5,0-35.5,15.5-35.5,38.1c0,22.9,15,38.1,35.5,38.1C328.2,180.8,345.2,165.5,345.2,142.6
	z M426.2,216.3V5h46.9v211.2H426.2z M507.1,216.3V5h46.9v211.2H507.1z M732.4,154.7h-108c3.8,17.6,15.8,28.5,31.7,28.5
	c10.9,0,23.5-2.6,31.4-17l41.7,8.5c-12.6,31.1-39.3,46.1-73,46.1c-42.5,0-77.7-31.4-77.7-78c0-46.3,35.2-78,78-78
	c41.7,0,75.1,29.9,76,78V154.7z M625.3,125.9h60.7c-4.4-15.8-16.1-23.2-29.6-23.2C643.2,102.7,629.7,110.9,625.3,125.9z M865,68.1
	l-2.1,46.9h-8.5c-32.9,0-50.8,17-50.8,55.2v46.1h-46.9V69h46.9v28.2c10.6-17.6,26.7-30.2,50.8-30.2C858.6,66.9,861.5,67.2,865,68.1z
	 M958,266.1h-50.8l23.8-54.9L870,68.7h50.5l34.9,86l37.3-86h50.5L958,266.1z"/>
</svg>
