<?xml version="1.0" encoding="utf-8"?>
<!-- Generator: Adobe Illustrator 23.0.1, SVG Export Plug-In . SVG Version: 6.00 Build 0)  -->
<svg version="1.1" id="Layer_2" xmlns="http://www.w3.org/2000/svg" xmlns:xlink="http://www.w3.org/1999/xlink" x="0px" y="0px"
	 viewBox="0 0 1261 261" style="enable-background:new 0 0 1261 261;" xml:space="preserve">
<style type="text/css">
	.st0{fill:#1A1A1A;}
</style>
<path class="st0" d="M240.7,253h-50.6L64,108.6V253H2.6V3.7h51l126.1,148.8V3.7h61V253z M480.7,253h-59.5v-14.9
	c-14.5,13-33.9,20.5-58,20.5c-49.5,0-91.2-39.8-91.2-99c0-58.8,41.7-99,91.2-99c24.2,0,43.5,7.4,58,20.5V66.2h59.5V253z
	 M421.2,159.6c0-28.6-21.6-48.4-45.8-48.4c-26,0-45,19.7-45,48.4c0,29,19,48.4,45,48.4C399.6,208,421.2,188.6,421.2,159.6z
	 M662.3,244.8c-14.5,7.8-29.8,13.8-51,13.8c-46.5,0-74.4-25.3-74.4-74.4v-70.7H503V66.2h33.9V11.1h59.5v55.1h55.1v47.3h-55.1v64.7
	c0,19.3,9.3,27.2,24.9,27.2c8.2,0,19.3-3,27.2-7.4L662.3,244.8z M868,253h-59.5v-17.9c-14.1,14.9-33.9,23.4-57.3,23.4
	c-43.5,0-72.6-30.9-72.6-77.8V66.2h59.2v101.9c0,22,13,36.8,32,36.8c23.4,0,38.7-16,38.7-52.1V66.2H868V253z M1048.5,65.1l-2.6,59.5
	h-10.8c-41.7,0-64.4,21.6-64.4,69.9V253h-59.5V66.2h59.5v35.7c13.4-22.3,33.9-38.3,64.4-38.3C1040.3,63.6,1044,64,1048.5,65.1z
	 M1255.7,174.8h-136.9c4.8,22.3,20.1,36.1,40.2,36.1c13.8,0,29.8-3.3,39.8-21.6l52.8,10.8c-16,39.4-49.9,58.4-92.6,58.4
	c-54,0-98.6-39.8-98.6-99c0-58.8,44.6-99,99-99c52.8,0,95.2,38,96.4,99V174.8z M1119.9,138.4h77c-5.6-20.1-20.5-29.4-37.6-29.4
	C1142.6,109,1125.5,119.4,1119.9,138.4z"/>
</svg>
