<?xml version="1.0" encoding="utf-8"?>
<!-- Generator: Adobe Illustrator 23.0.1, SVG Export Plug-In . SVG Version: 6.00 Build 0)  -->
<svg version="1.1" id="Layer_2" xmlns="http://www.w3.org/2000/svg" xmlns:xlink="http://www.w3.org/1999/xlink" x="0px" y="0px"
	 viewBox="0 0 966 261" style="enable-background:new 0 0 966 261;" xml:space="preserve">
<style type="text/css">
	.st0{fill:#1A1A1A;}
</style>
<path class="st0" d="M209,73.4l-59.5,12.1C145,62.4,125.9,51,106.5,51c-20.2,0-33.1,11-33.1,25c0,9.9,4.4,17.3,19.8,20.6l51.1,11.4
	c42.6,9.6,67.6,32.7,67.6,71.7c0,52.6-46.7,79.7-101.4,79.7C55,259.4,9.4,232.9,2.8,184.8l62.5-12.1C71.5,198,89.2,209,113.8,209
	c22.8,0,36.4-10.3,36.4-25.4c0-11-5.1-18-22.8-21.7L76,151c-35.3-8.1-66.1-26.5-66.1-71.3c0-47.8,39.7-77.5,97.4-77.5
	C160.8,2.1,199.8,28.6,209,73.4z M381.3,245.8c-14.3,7.7-29.4,13.6-50.3,13.6c-45.9,0-73.5-25-73.5-73.5V116h-33.4V69.4h33.4V15
	h58.8v54.4h54.4V116h-54.4V180c0,19.1,9.2,26.8,24.6,26.8c8.1,0,19.1-2.9,26.8-7.3L381.3,245.8z M591.2,161.6
	c0,58.4-46.3,97.4-101.1,97.4c-55.9,0-102.2-39-102.2-97.4c0-58.1,46.3-97,102.2-97C544.9,64.6,591.2,103.5,591.2,161.6z
	 M534.6,161.6c0-28.7-21.7-47.8-44.5-47.8c-23.9,0-45.6,19.1-45.6,47.8c0,29,21.7,47.8,45.6,47.8
	C512.9,209.4,534.6,190.6,534.6,161.6z M757.3,68.3l-2.6,58.8h-10.7c-41.2,0-63.6,21.3-63.6,69.1v57.7h-58.8V69.4h58.8v35.3
	c13.2-22,33.4-37.9,63.6-37.9C749.2,66.8,752.9,67.2,757.3,68.3z M962,176.7H826.7c4.8,22,19.8,35.6,39.7,35.6
	c13.6,0,29.4-3.3,39.3-21.3l52.2,10.7c-15.8,39-49.2,57.7-91.5,57.7c-53.3,0-97.4-39.3-97.4-97.8c0-58.1,44.1-97.8,97.8-97.8
	c52.2,0,94.1,37.5,95.2,97.8V176.7z M827.8,140.7h76.1c-5.5-19.8-20.2-29-37.1-29C850.3,111.6,833.4,121.9,827.8,140.7z"/>
</svg>
